<svg width="253" height="236" viewBox="0 0 253 236" fill="none" xmlns="http://www.w3.org/2000/svg">
<path d="M252.238 114.108C249.558 134.911 239.197 159.098 218.504 170.21C187.238 187.002 189.855 212.83 128.828 224.058C119.314 225.809 110.284 226.546 101.769 226.401C97.1917 226.323 92.7615 225.985 88.4882 225.408C49.7023 220.214 23.6008 195.498 14.0248 165.662C1.42299 126.423 26.5854 100.735 43.264 85.2565C59.9427 69.7789 72.158 21.5526 132.057 10.0822C141.19 8.33691 150.53 7.44657 159.867 7.66008C181.179 8.13933 204.424 14.5553 220.509 27.9457C221.717 28.952 222.891 29.9951 224.036 31.07C246.393 52.1071 255.893 85.7462 252.238 114.108Z" fill="#FF6969"/>
<path opacity="0.7" d="M252.238 114.108C249.558 134.911 239.197 159.098 218.504 170.21C187.238 187.002 189.855 212.83 128.828 224.058C119.314 225.809 110.284 226.546 101.769 226.401C97.1918 226.323 92.7615 225.985 88.4882 225.408C49.7023 220.214 23.6008 195.498 14.0248 165.662C1.42298 126.423 26.5854 100.735 43.264 85.2565C59.9427 69.7789 72.158 21.5526 132.057 10.0822C141.19 8.33691 150.53 7.44657 159.867 7.66008C181.179 8.13933 204.425 14.5553 220.509 27.9457C221.717 28.952 222.891 29.9951 224.036 31.07C246.393 52.1071 255.893 85.7462 252.238 114.108Z" fill="white"/>
<path d="M138.283 75.3528C138.283 75.3528 137.555 71.7323 147.235 66.6232C156.916 61.5141 158.573 59.9051 155.977 58.6395C153.381 57.374 150.883 58.4116 150.883 58.4116C150.883 58.4116 154.582 55.7033 152.022 54.2137C149.462 52.7242 147.505 54.7507 147.505 54.7507C147.505 54.7507 151.129 48.1392 147.776 47.2299C144.423 46.3207 143.523 47.5733 142.215 49.9164C140.907 52.2594 139.181 58.6679 139.181 58.6679C139.181 58.6679 138.06 52.563 138.285 48.2422C138.511 43.9214 138.473 39.7942 135.661 39.8738C132.85 39.9535 131.616 46.1997 131.616 46.1997C131.616 46.1997 129.823 41.3783 127.446 43.1192C125.068 44.86 125.478 48.1218 125.478 48.1218C125.478 48.1218 122.557 44.5226 121.033 48.2103C119.509 51.8981 122.816 56.0074 122.816 56.0074C122.816 56.0074 121.651 57.4536 123.034 59.0138C124.417 60.574 129.044 63.7158 129.044 63.7158C129.044 63.7158 122.675 61.2553 119.502 59.2253C116.329 57.1953 114.169 61.9426 115.167 62.9927C116.165 64.0433 117.883 64.9615 117.883 64.9615C117.883 64.9615 113.751 66.0081 115.326 67.8231C116.901 69.6381 118.235 70.0467 118.235 70.0467C118.235 70.0467 116.157 71.37 117.876 72.2887C119.594 73.2069 121.877 73.5144 124.232 73.3731C126.587 73.2323 130.311 73.2756 130.311 73.2756C130.311 73.2756 132.75 74.0619 133.797 76.2641C134.844 78.4658 134.844 78.4658 134.844 78.4658L136.863 78.9664L138.283 75.3528Z" fill="#FF6969" stroke="#263238" stroke-miterlimit="10" stroke-linecap="round" stroke-linejoin="round"/>
<path d="M128.84 53.5518C128.476 51.8672 128.318 50.4424 128.266 49.6421L128.84 53.5518Z" fill="#FF6969"/>
<path d="M128.84 53.5518C128.476 51.8672 128.318 50.4424 128.266 49.6421" stroke="#263238" stroke-miterlimit="10" stroke-linecap="round" stroke-linejoin="round"/>
<path d="M137.053 74.8706C137.053 74.8706 135.87 66.238 132.563 62.1292C130.937 60.1077 129.903 57.5571 129.257 55.239" fill="#FF6969"/>
<path d="M137.053 74.8706C137.053 74.8706 135.87 66.238 132.563 62.1292C130.937 60.1077 129.903 57.5571 129.257 55.239" stroke="#263238" stroke-miterlimit="10" stroke-linecap="round" stroke-linejoin="round"/>
<path d="M139.82 63.6133C138.014 66.0822 137.095 67.6444 136.965 69.5918L139.82 63.6133Z" fill="#FF6969"/>
<path d="M139.82 63.6133C138.014 66.0822 137.095 67.6444 136.965 69.5918" stroke="#263238" stroke-miterlimit="10" stroke-linecap="round" stroke-linejoin="round"/>
<path d="M144.609 53.9032C144.609 53.9032 144.527 57.3272 141.562 61.2792C141.307 61.6181 141.064 61.9416 140.832 62.2511" fill="#FF6969"/>
<path d="M144.609 53.9032C144.609 53.9032 144.527 57.3272 141.562 61.2792C141.307 61.6181 141.064 61.9416 140.832 62.2511" stroke="#263238" stroke-miterlimit="10" stroke-linecap="round" stroke-linejoin="round"/>
<path d="M129.69 69.3624C129.355 69.2768 129.005 69.2071 128.639 69.1578C124.758 68.6353 121.562 68.2053 119.723 66.5834" fill="#FF6969"/>
<path d="M129.69 69.3624C129.355 69.2768 129.005 69.2071 128.639 69.1578C124.758 68.6353 121.562 68.2053 119.723 66.5834" stroke="#263238" stroke-miterlimit="10" stroke-linecap="round" stroke-linejoin="round"/>
<path d="M134.636 72.4843C134.636 72.4843 133.659 71.1908 131.817 70.197L134.636 72.4843Z" fill="#FF6969"/>
<path d="M134.636 72.4843C134.636 72.4843 133.659 71.1908 131.817 70.197" stroke="#263238" stroke-miterlimit="10" stroke-linecap="round" stroke-linejoin="round"/>
<path d="M38.0804 189.092C38.0804 189.092 41.2561 190.683 39.6541 199.793C38.0522 208.902 38.3388 210.879 40.7789 209.934C43.2191 208.988 43.8466 206.796 43.8466 206.796C43.8466 206.796 43.8113 210.707 46.4024 209.911C48.9934 209.116 48.5591 206.71 48.5591 206.71C48.5591 206.71 51.5443 212.79 54.1429 211.156C56.7416 209.523 56.297 208.234 55.2525 206.064C54.2081 203.894 50.299 199.147 50.299 199.147C50.299 199.147 55.594 201.896 58.7621 204.496C61.9307 207.095 65.1015 209.415 66.6378 207.567C68.1741 205.719 64.1097 201.38 64.1097 201.38C64.1097 201.38 68.807 202.969 68.8293 200.455C68.8521 197.942 66.1302 196.352 66.1302 196.352C66.1302 196.352 70.5366 196.523 68.5883 193.451C66.64 190.379 61.6262 190.165 61.6262 190.165C61.6262 190.165 61.1843 188.596 59.2083 188.596C57.2323 188.596 52.206 189.779 52.206 189.779C52.206 189.779 57.7019 187.092 61.0535 186.212C64.405 185.33 62.01 181.248 60.6414 181.292C59.2729 181.335 57.596 181.915 57.596 181.915C57.596 181.915 59.1453 178.671 56.8653 178.65C54.5859 178.628 53.5165 179.252 53.5165 179.252C53.5165 179.252 53.6869 177.167 52.01 177.748C50.3332 178.328 48.8012 179.617 47.5711 181.208C46.341 182.798 44.1919 185.161 44.1919 185.161C44.1919 185.161 42.2061 186.278 39.9315 185.699C37.657 185.119 37.657 185.119 37.657 185.119L36.1283 186.129L38.0804 189.092Z" fill="#FF6969" stroke="#263238" stroke-miterlimit="10" stroke-linecap="round" stroke-linejoin="round"/>
<path d="M60.0779 195.423C61.5702 196.147 62.7471 196.855 63.3871 197.276L60.0779 195.423Z" fill="#FF6969"/>
<path d="M60.0779 195.423C61.5702 196.147 62.7471 196.855 63.3871 197.276" stroke="#263238" stroke-miterlimit="10" stroke-linecap="round" stroke-linejoin="round"/>
<path d="M39.1471 188.577C39.1471 188.577 46.4051 192.723 51.4189 192.937C53.8851 193.043 56.4186 193.829 58.5547 194.731" fill="#FF6969"/>
<path d="M39.1471 188.577C39.1471 188.577 46.4051 192.723 51.4189 192.937C53.8851 193.043 56.4186 193.829 58.5547 194.731" stroke="#263238" stroke-miterlimit="10" stroke-linecap="round" stroke-linejoin="round"/>
<path d="M46.1634 196.748C45.3057 194.187 44.6364 192.71 43.2239 191.52L46.1634 196.748Z" fill="#FF6969"/>
<path d="M46.1634 196.748C45.3057 194.187 44.6364 192.71 43.2239 191.52" stroke="#263238" stroke-miterlimit="10" stroke-linecap="round" stroke-linejoin="round"/>
<path d="M50.8516 205.335C50.8516 205.335 48.2856 203.337 46.955 199.19C46.841 198.835 46.7325 198.495 46.6277 198.17" fill="#FF6969"/>
<path d="M50.8516 205.335C50.8516 205.335 48.2856 203.337 46.955 199.19C46.841 198.835 46.7325 198.495 46.6277 198.17" stroke="#263238" stroke-miterlimit="10" stroke-linecap="round" stroke-linejoin="round"/>
<path d="M47.5326 186.986C47.7877 186.82 48.0402 186.635 48.2855 186.428C50.8891 184.236 53.0328 182.431 55.315 182.173" fill="#FF6969"/>
<path d="M47.5326 186.986C47.7877 186.82 48.0402 186.635 48.2855 186.428C50.8891 184.236 53.0328 182.431 55.315 182.173" stroke="#263238" stroke-miterlimit="10" stroke-linecap="round" stroke-linejoin="round"/>
<path d="M42.3407 188.383C42.3407 188.383 43.8824 188.492 45.6874 187.875L42.3407 188.383Z" fill="#FF6969"/>
<path d="M42.3407 188.383C42.3407 188.383 43.8824 188.492 45.6874 187.875" stroke="#263238" stroke-miterlimit="10" stroke-linecap="round" stroke-linejoin="round"/>
<path d="M29.5212 126.28C29.5212 126.28 28.9979 123.674 35.9633 119.998C42.9292 116.322 44.1213 115.164 42.2533 114.253C40.3854 113.343 38.5874 114.09 38.5874 114.09C38.5874 114.09 41.249 112.141 39.4066 111.069C37.5647 109.997 36.1565 111.455 36.1565 111.455C36.1565 111.455 38.7644 106.698 36.352 106.044C33.9395 105.389 33.2919 106.291 32.3506 107.977C31.4093 109.663 30.1672 114.274 30.1672 114.274C30.1672 114.274 29.3605 109.881 29.5229 106.772C29.6852 103.663 29.6575 100.693 27.6343 100.751C25.6116 100.808 24.7235 105.302 24.7235 105.302C24.7235 105.302 23.4331 101.833 21.722 103.086C20.011 104.338 20.3063 106.685 20.3063 106.685C20.3063 106.685 18.2038 104.095 17.1078 106.749C16.0117 109.403 18.3905 112.36 18.3905 112.36C18.3905 112.36 17.5524 113.4 18.5474 114.523C19.5425 115.646 22.8718 117.907 22.8718 117.907C22.8718 117.907 18.289 116.137 16.0058 114.675C13.7225 113.215 12.1689 116.631 12.8865 117.387C13.6047 118.143 14.8414 118.803 14.8414 118.803C14.8414 118.803 11.8681 119.556 13.0011 120.862C14.1346 122.168 15.0943 122.462 15.0943 122.462C15.0943 122.462 13.5993 123.415 14.8359 124.075C16.0725 124.736 17.7152 124.957 19.4095 124.856C21.1037 124.754 23.7838 124.786 23.7838 124.786C23.7838 124.786 25.5388 125.351 26.2923 126.936C27.0453 128.521 27.0453 128.521 27.0453 128.521L28.4979 128.881L29.5212 126.28Z" fill="#FF6969" stroke="#263238" stroke-miterlimit="10" stroke-linecap="round" stroke-linejoin="round"/>
<path d="M22.7268 110.593C22.4646 109.381 22.3506 108.355 22.3137 107.78L22.7268 110.593Z" fill="#FF6969"/>
<path d="M22.7268 110.593C22.4646 109.381 22.3506 108.355 22.3137 107.78" stroke="#263238" stroke-miterlimit="10" stroke-linecap="round" stroke-linejoin="round"/>
<path d="M28.6359 125.933C28.6359 125.933 27.7847 119.721 25.4053 116.764C24.2349 115.31 23.4912 113.474 23.026 111.806" fill="#FF6969"/>
<path d="M28.6359 125.933C28.6359 125.933 27.7847 119.721 25.4053 116.764C24.2349 115.31 23.4912 113.474 23.026 111.806" stroke="#263238" stroke-miterlimit="10" stroke-linecap="round" stroke-linejoin="round"/>
<path d="M30.6276 117.833C29.3285 119.609 28.6668 120.733 28.5729 122.134L30.6276 117.833Z" fill="#FF6969"/>
<path d="M30.6276 117.833C29.3285 119.609 28.6668 120.733 28.5729 122.134" stroke="#263238" stroke-miterlimit="10" stroke-linecap="round" stroke-linejoin="round"/>
<path d="M34.073 110.845C34.073 110.845 34.0138 113.309 31.8804 116.153C31.6975 116.397 31.5227 116.63 31.3555 116.853" fill="#FF6969"/>
<path d="M34.073 110.845C34.073 110.845 34.0138 113.309 31.8804 116.153C31.6975 116.397 31.5227 116.63 31.3555 116.853" stroke="#263238" stroke-miterlimit="10" stroke-linecap="round" stroke-linejoin="round"/>
<path d="M23.3381 121.97C23.0976 121.908 22.8452 121.858 22.5819 121.822C19.7894 121.447 17.4894 121.137 16.1659 119.97" fill="#FF6969"/>
<path d="M23.3381 121.97C23.0976 121.908 22.8452 121.858 22.5819 121.822C19.7894 121.447 17.4894 121.137 16.1659 119.97" stroke="#263238" stroke-miterlimit="10" stroke-linecap="round" stroke-linejoin="round"/>
<path d="M26.8971 124.216C26.8971 124.216 26.1947 123.285 24.869 122.57L26.8971 124.216Z" fill="#FF6969"/>
<path d="M26.8971 124.216C26.8971 124.216 26.1947 123.285 24.869 122.57" stroke="#263238" stroke-miterlimit="10" stroke-linecap="round" stroke-linejoin="round"/>
<path d="M182.283 180.296C215.841 149.532 215.841 99.6528 182.283 68.8885C148.726 38.1241 94.3186 38.1241 60.7611 68.8885C27.2037 99.6529 27.2037 149.532 60.7611 180.296C94.3186 211.061 148.726 211.061 182.283 180.296Z" fill="#263238"/>
<path d="M161.918 161.626C184.228 141.173 184.228 108.012 161.918 87.559C139.608 67.1061 103.437 67.1062 81.1268 87.5591C58.817 108.012 58.817 141.173 81.1268 161.626C103.437 182.078 139.608 182.078 161.918 161.626Z" stroke="#8A8A8A" stroke-miterlimit="10"/>
<path d="M237.723 126.625C244.061 126.625 249.199 121.915 249.199 116.105C249.199 110.295 244.061 105.585 237.723 105.585C231.386 105.585 226.248 110.295 226.248 116.105C226.248 121.915 231.386 126.625 237.723 126.625Z" fill="#BFBFBF" stroke="#263238" stroke-miterlimit="10"/>
<path d="M238.834 111.474C238.834 111.474 237.327 109.089 236.723 109.876C236.119 110.663 237.251 111.864 237.085 112.581C236.92 113.298 234.383 113.426 234.682 114.207C234.98 114.988 237.723 116.105 237.723 116.105C237.723 116.105 237.586 117.612 238.197 117.653C238.807 117.694 240.111 115.828 240.111 115.828C240.111 115.828 241.605 116.557 242.159 115.502C242.712 114.447 241.052 114.435 241.072 113.742C241.091 113.048 242.553 112.815 242.28 112.168C242.007 111.521 239.355 112.634 238.834 111.474Z" fill="#FF6969" stroke="#263238" stroke-miterlimit="10"/>
<path d="M238.922 113.532C238.922 113.532 241.976 104.205 245.658 100.58C249.34 96.9547 250.263 96.2555 251.61 97.008C252.958 97.76 252.182 98.4363 251.476 98.6866C250.771 98.937 244.323 101.484 240.124 114.308C240.124 114.308 237.733 114.412 238.922 113.532Z" fill="#FF6969" stroke="#263238" stroke-miterlimit="10"/>
<path d="M228.862 153.811C234.729 151.616 237.545 145.476 235.151 140.096C232.756 134.716 226.059 132.135 220.191 134.33C214.323 136.525 211.507 142.665 213.902 148.045C216.296 153.424 222.994 156.006 228.862 153.811Z" fill="#BFBFBF" stroke="#263238" stroke-miterlimit="10"/>
<path d="M226.334 140.361C226.334 140.361 221.584 138.728 222.326 140.225C223.068 141.722 224.256 140.633 223.81 142.13C223.365 143.627 222.919 144.988 223.513 145.124C224.107 145.26 225.294 142.539 225.591 143.491C225.888 144.444 226.333 146.485 227.075 145.397C227.817 144.308 226.927 142.675 227.372 142.675C227.817 142.675 230.935 143.764 230.489 141.722C230.044 139.681 228.411 140.633 227.966 140.497C227.521 140.362 227.966 137.912 226.778 138.32C225.592 138.728 226.334 140.361 226.334 140.361Z" fill="#FF6969" stroke="#263238" stroke-miterlimit="10"/>
<path d="M226.716 141.098C226.716 141.098 221.521 141.778 219.443 145.453C217.365 149.127 216.474 152.121 216.325 152.937C216.177 153.754 217.216 154.434 217.661 153.89C218.107 153.345 219.591 148.31 220.63 146.405C221.669 144.5 221.862 143.917 223.966 142.982C226.071 142.047 227.425 141.786 226.716 141.098Z" fill="#FF6969" stroke="#263238" stroke-miterlimit="10"/>
<path d="M214.953 115.837C220.821 113.642 223.637 107.501 221.242 102.122C218.848 96.7419 212.15 94.1602 206.282 96.3552C200.414 98.5501 197.599 104.691 199.993 110.07C202.387 115.45 209.085 118.032 214.953 115.837Z" fill="#BFBFBF" stroke="#263238" stroke-miterlimit="10"/>
<path d="M212.426 102.387C212.426 102.387 207.676 100.754 208.418 102.251C209.16 103.748 210.348 102.659 209.902 104.156C209.457 105.653 209.011 107.014 209.605 107.15C210.199 107.286 211.386 104.565 211.683 105.517C211.98 106.47 212.425 108.511 213.167 107.422C213.909 106.333 213.019 104.701 213.464 104.701C213.909 104.701 217.027 105.789 216.581 103.748C216.136 101.707 214.503 102.659 214.058 102.523C213.613 102.387 214.058 99.9378 212.87 100.346C211.683 100.754 212.426 102.387 212.426 102.387Z" fill="#FF6969" stroke="#263238" stroke-miterlimit="10"/>
<path d="M212.808 103.123C212.808 103.123 207.613 103.804 205.535 107.478C203.457 111.152 202.566 114.146 202.418 114.962C202.269 115.779 203.308 116.459 203.754 115.915C204.199 115.371 205.683 110.336 206.722 108.431C207.762 106.525 207.954 105.943 210.058 105.007C212.163 104.071 213.518 103.812 212.808 103.123Z" fill="#FF6969" stroke="#263238" stroke-miterlimit="10"/>
<path d="M51.2398 129.809C51.2398 129.809 38.7579 125.132 28.6543 136.38C18.5507 147.627 29.9501 162.227 29.9501 162.227C29.9501 162.227 35.6181 159.737 41.7523 154.113C47.8866 148.489 57.1189 138.747 58.2014 136.101C59.2838 133.454 51.2398 129.809 51.2398 129.809Z" fill="#FF6969" stroke="#263238" stroke-miterlimit="10" stroke-linecap="round" stroke-linejoin="round"/>
<path opacity="0.34" d="M44.1898 150.342C44.1898 150.342 36.4221 142.523 31.8529 142.523C27.2837 142.523 26.0655 147.55 27.4362 153.414C28.8069 159.279 31.8529 159.976 32.4625 159.976C33.071 159.977 42.0574 153.694 44.1898 150.342Z" fill="black"/>
<path opacity="0.34" d="M45.2559 149.226C45.2559 149.226 41.2958 144.618 39.0114 140.01C36.7271 135.402 38.0978 132.61 42.3625 130.934C46.6272 129.259 55.1565 134.425 56.6792 135.263L57.1363 136.38C57.1363 136.38 47.8448 146.992 45.2559 149.226Z" fill="black"/>
<path d="M35.965 147.271C35.965 147.271 31.8529 146.712 30.9387 148.807C30.0251 150.901 35.813 148.947 35.965 147.271Z" fill="#FF6969" stroke="#263238" stroke-miterlimit="10" stroke-linecap="round" stroke-linejoin="round"/>
<path d="M37.4882 149.086C37.4882 149.086 33.8326 150.482 33.8326 152.577C33.8326 154.671 37.7928 152.158 37.4882 149.086Z" fill="#FF6969" stroke="#263238" stroke-miterlimit="10" stroke-linecap="round" stroke-linejoin="round"/>
<path d="M44.6463 136.938C44.6463 136.938 42.8185 137.357 42.3614 139.032C41.9043 140.708 42.666 142.384 42.666 142.384C42.666 142.384 45.7124 140.01 44.6463 136.938Z" fill="#FF6969" stroke="#263238" stroke-miterlimit="10" stroke-linecap="round" stroke-linejoin="round"/>
<path d="M47.8448 140.987C47.8448 140.987 46.7787 140.987 45.865 142.105C44.9514 143.222 44.9514 144.059 44.9514 144.478C44.9514 144.897 48.1494 144.339 47.8448 140.987Z" fill="#FF6969" stroke="#263238" stroke-miterlimit="10" stroke-linecap="round" stroke-linejoin="round"/>
<path d="M92.0587 183.968C92.0587 183.968 102.232 175.855 95.8244 162.521C89.4166 149.187 70.0644 151.947 70.0644 151.947C70.0644 151.947 69.9395 157.709 72.656 165.262C75.3724 172.815 80.7059 184.758 82.7965 186.836C84.887 188.913 92.0587 183.968 92.0587 183.968Z" fill="#FF6969" stroke="#263238" stroke-miterlimit="10" stroke-linecap="round" stroke-linejoin="round"/>
<path d="M91.209 182.929C91.209 182.929 101.382 174.816 94.9748 161.482C88.5675 148.149 69.2148 150.909 69.2148 150.909C69.2148 150.909 69.0899 156.67 71.8063 164.224C74.5228 171.777 79.8563 183.72 81.9469 185.797C84.0374 187.874 91.209 182.929 91.209 182.929Z" fill="#FF6969" stroke="#263238" stroke-miterlimit="10" stroke-linecap="round" stroke-linejoin="round"/>
<path opacity="0.34" d="M74.3816 167.915C74.3816 167.915 85.4944 165.076 87.5507 161.336C89.6076 157.595 85.2593 154.335 78.9302 152.817C72.601 151.3 70.5496 153.479 70.2754 153.978C70.0018 154.477 72.0772 164.661 74.3816 167.915Z" fill="black"/>
<path opacity="0.34" d="M74.9896 169.291C74.9896 169.291 81.2601 168.124 86.7766 168.327C92.2931 168.531 94.3961 170.91 94.109 175.155C93.8212 179.401 84.9505 184.058 83.4484 184.928L82.1548 184.799C82.1548 184.799 76.0004 172.416 74.9896 169.291Z" fill="black"/>
<path d="M81.0756 162.565C81.0756 162.565 83.4707 159.45 81.8416 157.759C80.213 156.068 79.5122 161.686 81.0756 162.565Z" fill="#FF6969" stroke="#263238" stroke-miterlimit="10" stroke-linecap="round" stroke-linejoin="round"/>
<path d="M78.6219 162.995C78.6219 162.995 78.9075 159.374 76.8674 158.431C74.8274 157.489 75.4929 161.862 78.6219 162.995Z" fill="#FF6969" stroke="#263238" stroke-miterlimit="10" stroke-linecap="round" stroke-linejoin="round"/>
<path d="M87.2327 174.323C87.2327 174.323 87.6474 172.639 86.2208 171.51C84.7947 170.382 82.8198 170.251 82.8198 170.251C82.8198 170.251 83.7606 173.813 87.2327 174.323Z" fill="#FF6969" stroke="#263238" stroke-miterlimit="10" stroke-linecap="round" stroke-linejoin="round"/>
<path d="M81.8486 175.119C81.8486 175.119 82.3285 174.246 81.6516 172.995C80.9752 171.745 80.1587 171.368 79.751 171.179C79.3428 170.99 78.4476 173.86 81.8486 175.119Z" fill="#FF6969" stroke="#263238" stroke-miterlimit="10" stroke-linecap="round" stroke-linejoin="round"/>
<path d="M195.408 75.3966C209.615 75.3966 221.133 64.8377 221.133 51.8125C221.133 38.7873 209.615 28.2283 195.408 28.2283C181.2 28.2283 169.682 38.7873 169.682 51.8125C169.682 64.8377 181.2 75.3966 195.408 75.3966Z" fill="white" stroke="#263238" stroke-miterlimit="10"/>
<path d="M193.375 73.5513C209.957 73.5513 223.399 61.2278 223.399 46.0261C223.399 30.8243 209.957 18.5009 193.375 18.5009C176.793 18.5009 163.351 30.8243 163.351 46.0261C163.351 61.2278 176.793 73.5513 193.375 73.5513Z" fill="white" stroke="#263238" stroke-miterlimit="10"/>
<path d="M215.486 50.9119C218.426 39.7108 210.904 28.4458 198.686 25.751C186.468 23.0561 174.18 29.9518 171.241 41.1529C168.301 52.3541 175.823 63.619 188.041 66.3139C200.259 69.0087 212.547 62.113 215.486 50.9119Z" fill="#263238"/>
<path d="M202.25 32.5561C202.25 32.5561 210.136 21.9014 213.872 12.7682C215.204 9.51489 215.55 5.48127 218.225 2.75851C221.122 -0.1897 226.258 0.632453 226.746 4.74969C227.02 7.06287 225.938 8.79576 223.96 11.205C221.184 14.5852 215.583 19.0672 213.175 22.6957C208.915 29.1122 206.123 32.7273 204.936 34.1999C204.409 34.8538 203.483 35.1798 202.645 34.9136C201.929 34.6866 201.419 34.0785 202.25 32.5561Z" fill="#FF6969" stroke="#263238" stroke-miterlimit="10" stroke-linecap="round" stroke-linejoin="round"/>
<path d="M220.171 3.58962C220.171 3.58962 223.377 2.25338 224.106 5.861" stroke="#263238" stroke-miterlimit="10" stroke-linecap="round" stroke-linejoin="round"/>
<path d="M136.373 206.215C136.373 206.215 151.515 205.859 163.938 189.13C163.938 189.13 160.444 174.894 157.338 174.537C154.233 174.181 144.527 186.994 140.644 194.113C136.762 201.232 136.373 206.215 136.373 206.215Z" fill="white" stroke="#263238" stroke-miterlimit="10"/>
<path d="M105.007 54.9219C105.007 54.9219 102.995 61.2468 100.983 71.7885C98.9703 82.3302 99.5451 95.507 100.408 97.6157C101.27 99.7238 104.72 100.515 106.444 99.9876C108.169 99.4605 108.169 98.6697 108.457 88.1281C108.744 77.5864 108.744 72.8426 111.906 64.9366C115.069 57.0306 113.919 53.6046 111.619 51.7597C109.319 49.9149 107.307 49.1241 105.007 54.9219Z" fill="#D6D6D6" stroke="#263238" stroke-miterlimit="10"/>
<path d="M111.906 57.5576C111.906 57.5576 107.882 64.1463 106.732 73.6334C105.582 83.121 108.549 92.2627 107.065 95.0711C105.582 97.8795 102.707 96.8254 102.707 96.8254" fill="white"/>
<path d="M111.906 57.5576C111.906 57.5576 107.882 64.1463 106.732 73.6334C105.582 83.121 108.549 92.2627 107.065 95.0711C105.582 97.8795 102.707 96.8254 102.707 96.8254" stroke="#263238" stroke-miterlimit="10"/>
<path d="M125.646 88.5605C125.646 88.5605 124.491 85.0052 134.282 79.1904C144.072 73.3756 145.671 71.6477 142.77 70.5797C139.869 69.5117 137.313 70.7325 137.313 70.7325C137.313 70.7325 140.975 67.7569 138.089 66.4624C135.203 65.168 133.327 67.3344 133.327 67.3344C133.327 67.3344 136.502 60.473 132.831 59.8165C129.161 59.1596 128.331 60.476 127.181 62.9091C126.03 65.3422 124.86 71.8602 124.86 71.8602C124.86 71.8602 123.026 65.8573 122.815 61.533C122.603 57.2087 122.131 53.0965 119.141 53.3856C116.15 53.6743 115.488 59.9937 115.488 59.9937C115.488 59.9937 113.071 55.3206 110.717 57.2331C108.363 59.1462 109.142 62.3671 109.142 62.3671C109.142 62.3671 105.65 58.9964 104.41 62.7866C103.17 66.5769 107.126 70.4274 107.126 70.4274C107.126 70.4274 106.035 71.9562 107.673 73.4084C109.311 74.8606 114.575 77.6486 114.575 77.6486C114.575 77.6486 107.525 75.6704 103.928 73.8827C100.331 72.0951 98.524 76.9892 99.6982 77.9621C100.872 78.9351 102.801 79.7224 102.801 79.7224C102.801 79.7224 98.5034 81.0741 100.373 82.7662C102.243 84.4582 103.708 84.7663 103.708 84.7663C103.708 84.7663 101.63 86.2404 103.559 87.0282C105.488 87.8155 107.955 87.9519 110.452 87.6359C112.948 87.3199 116.925 87.0854 116.925 87.0854C116.925 87.0854 119.609 87.6876 120.955 89.8047L121.918 91.3181C122.162 91.7009 122.577 91.9656 123.053 92.0408C123.879 92.1716 124.679 91.7083 124.906 90.9683L125.646 88.5605Z" fill="#FF6969" stroke="#263238" stroke-miterlimit="10" stroke-linecap="round" stroke-linejoin="round"/>
<path d="M113.296 67.53C112.731 65.8777 112.413 64.4688 112.275 63.675L113.296 67.53Z" fill="#FF6969"/>
<path d="M113.296 67.53C112.731 65.8777 112.413 64.4688 112.275 63.675" stroke="#263238" stroke-miterlimit="10" stroke-linecap="round" stroke-linejoin="round"/>
<path d="M124.283 88.1719C124.283 88.1719 122.119 79.6537 118.163 75.8037C116.217 73.9096 114.848 71.4436 113.916 69.1807" fill="#FF6969"/>
<path d="M124.283 88.1719C124.283 88.1719 122.119 79.6537 118.163 75.8037C116.217 73.9096 114.848 71.4436 113.916 69.1807" stroke="#263238" stroke-miterlimit="10" stroke-linecap="round" stroke-linejoin="round"/>
<path d="M126.059 76.7423C124.391 79.3382 123.573 80.9646 123.638 82.9155L126.059 76.7423Z" fill="#FF6969"/>
<path d="M126.059 76.7423C124.391 79.3382 123.573 80.9646 123.638 82.9155" stroke="#263238" stroke-miterlimit="10" stroke-linecap="round" stroke-linejoin="round"/>
<path d="M130.15 66.7048C130.15 66.7048 130.421 70.1248 127.672 74.2853C127.436 74.6422 127.21 74.9826 126.995 75.309" fill="#FF6969"/>
<path d="M130.15 66.7048C130.15 66.7048 130.421 70.1248 127.672 74.2853C127.436 74.6422 127.21 74.9826 126.995 75.309" stroke="#263238" stroke-miterlimit="10" stroke-linecap="round" stroke-linejoin="round"/>
<path d="M115.855 83.229C115.489 83.1688 115.108 83.1255 114.712 83.1036C110.518 82.8722 107.064 82.6811 104.933 81.2015" fill="#FF6969"/>
<path d="M115.855 83.229C115.489 83.1688 115.108 83.1255 114.712 83.1036C110.518 82.8722 107.064 82.6811 104.933 81.2015" stroke="#263238" stroke-miterlimit="10" stroke-linecap="round" stroke-linejoin="round"/>
<path d="M121.456 85.9727C121.456 85.9727 120.28 84.7559 118.211 83.9023L121.456 85.9727Z" fill="#FF6969"/>
<path d="M121.456 85.9727C121.456 85.9727 120.28 84.7559 118.211 83.9023" stroke="#263238" stroke-miterlimit="10" stroke-linecap="round" stroke-linejoin="round"/>
<path d="M100.637 89.9057C100.637 89.9057 96.5914 89.8505 93.4727 79.5452C90.354 69.2399 89.0349 67.3234 87.054 69.541C85.0737 71.7586 85.578 74.36 85.578 74.36C85.578 74.36 83.5781 70.2656 81.3665 72.4026C79.1549 74.5391 80.8475 76.8289 80.8475 76.8289C80.8475 76.8289 74.6579 71.997 72.8746 75.0109C71.0913 78.0248 72.2129 79.1446 74.4006 80.8795C76.5883 82.6143 83.0211 85.5909 83.0211 85.5909C83.0211 85.5909 76.2246 85.3968 71.6608 84.286C67.097 83.1752 62.6766 82.357 62.0811 85.0589C61.4861 87.7608 67.8635 90.2332 67.8635 90.2332C67.8635 90.2332 62.2765 90.9469 63.562 93.579C64.8474 96.2112 68.433 96.4949 68.433 96.4949C68.433 96.4949 63.879 98.5398 67.4521 100.759C71.0257 102.979 76.2175 100.672 76.2175 100.672C76.2175 100.672 77.4818 102.084 79.4839 101.086C81.4859 100.089 85.9639 96.3197 85.9639 96.3197C85.9639 96.3197 81.7932 101.894 78.8558 104.504C75.9184 107.114 80.4702 110.161 81.8339 109.425C83.1981 108.69 84.5954 107.239 84.5954 107.239C84.5954 107.239 84.7143 111.403 87.0355 110.274C89.3568 109.146 90.1157 107.957 90.1157 107.957C90.1157 107.957 91.0277 110.216 92.425 108.764C93.8223 107.312 94.7033 105.196 95.1219 102.917C95.541 100.639 96.4883 97.0896 96.4883 97.0896C96.4883 97.0896 97.9187 94.9222 100.525 94.3788C103.132 93.8353 103.132 93.8353 103.132 93.8353L104.156 92.0109L100.637 89.9057Z" fill="#FF6969" stroke="#263238" stroke-miterlimit="10" stroke-linecap="round" stroke-linejoin="round"/>
<path d="M89.278 85.7402C89.278 85.7402 85.2321 85.685 82.1134 75.3797C78.9947 65.0744 77.6756 63.1579 75.6947 65.3755C73.7144 67.5931 74.2187 70.1945 74.2187 70.1945C74.2187 70.1945 72.2188 66.1001 70.0072 68.2371C67.7957 70.3736 69.4883 72.6629 69.4883 72.6629C69.4883 72.6629 63.2987 67.831 61.5154 70.8454C59.7326 73.8593 60.8536 74.9791 63.0413 76.714C65.229 78.4488 71.6619 81.4254 71.6619 81.4254C71.6619 81.4254 64.8653 81.2313 60.3016 80.1205C55.7378 79.0097 51.3173 78.1915 50.7218 80.8934C50.1268 83.5953 56.5043 86.0677 56.5043 86.0677C56.5043 86.0677 50.9172 86.7814 52.2027 89.4135C53.4882 92.0457 57.0737 92.3294 57.0737 92.3294C57.0737 92.3294 52.5197 94.3743 56.0928 96.5939C59.6664 98.8136 64.8583 96.5064 64.8583 96.5064C64.8583 96.5064 66.1226 97.9182 68.1246 96.9209C70.1267 95.9236 74.6047 92.1542 74.6047 92.1542C74.6047 92.1542 70.4339 97.7286 67.4965 100.339C64.5592 102.949 69.111 105.996 70.4746 105.26C71.8388 104.525 73.2361 103.074 73.2361 103.074C73.2361 103.074 73.355 107.238 75.6763 106.109C77.9975 104.981 78.7564 103.792 78.7564 103.792C78.7564 103.792 79.6684 106.051 81.0657 104.599C82.463 103.148 83.3436 101.031 83.7626 98.7518C84.1817 96.4735 85.129 92.9246 85.129 92.9246C85.129 92.9246 86.5594 90.7572 89.1662 90.2138C91.773 89.6703 91.773 89.6703 91.773 89.6703L92.7963 87.8459L89.278 85.7402Z" fill="#FF6969" stroke="#263238" stroke-miterlimit="10" stroke-linecap="round" stroke-linejoin="round"/>
<path d="M75.0509 94.4082C73.1623 94.4067 71.6005 94.2628 70.733 94.1464L75.0509 94.4082Z" fill="#FF6969"/>
<path d="M75.0509 94.4082C73.1623 94.4067 71.6005 94.2628 70.733 94.1464" stroke="#263238" stroke-miterlimit="10" stroke-linecap="round" stroke-linejoin="round"/>
<path d="M99.8241 90.9807C99.8241 90.9807 90.3111 90.3218 85.1192 92.629C82.5651 93.7637 79.5886 94.2225 76.9547 94.3599" fill="#FF6969"/>
<path d="M99.8241 90.9807C99.8241 90.9807 90.3111 90.3218 85.1192 92.629C82.5651 93.7637 79.5886 94.2225 76.9547 94.3599" stroke="#263238" stroke-miterlimit="10" stroke-linecap="round" stroke-linejoin="round"/>
<path d="M88.4611 86.0045C90.6629 88.2405 92.1107 89.4429 94.1605 89.9704L88.4611 86.0045Z" fill="#FF6969"/>
<path d="M88.4611 86.0045C90.6629 88.2405 92.1107 89.4429 94.1605 89.9704" stroke="#263238" stroke-miterlimit="10" stroke-linecap="round" stroke-linejoin="round"/>
<path d="M79.2412 79.4188C79.2412 79.4188 82.8811 80.2066 86.3879 83.8575C86.6886 84.1706 86.9753 84.4697 87.2505 84.7558" fill="#FF6969"/>
<path d="M79.2412 79.4188C79.2412 79.4188 82.8811 80.2066 86.3879 83.8575C86.6886 84.1706 86.9753 84.4697 87.2505 84.7558" stroke="#263238" stroke-miterlimit="10" stroke-linecap="round" stroke-linejoin="round"/>
<path d="M92.1557 96.8726C91.9831 97.1742 91.8241 97.4947 91.6829 97.8341C90.1857 101.433 88.9529 104.397 86.7744 105.818" fill="#FF6969"/>
<path d="M92.1557 96.8726C91.9831 97.1742 91.8241 97.4947 91.6829 97.8341C90.1857 101.433 88.9529 104.397 86.7744 105.818" stroke="#263238" stroke-miterlimit="10" stroke-linecap="round" stroke-linejoin="round"/>
<path d="M96.6891 92.7947C96.6891 92.7947 95.0703 93.4591 93.5623 95.0133L96.6891 92.7947Z" fill="#FF6969"/>
<path d="M96.6891 92.7947C96.6891 92.7947 95.0703 93.4591 93.5623 95.0133" stroke="#263238" stroke-miterlimit="10" stroke-linecap="round" stroke-linejoin="round"/>
<path d="M135.9 76.7951C135.9 76.7951 132.264 75.2324 133.36 65.0416C134.456 54.8508 133.992 52.6794 131.359 53.8793C128.726 55.0792 128.195 57.5462 128.195 57.5462C128.195 57.5462 127.942 53.2129 125.132 54.2555C122.322 55.2987 122.982 57.9368 122.982 57.9368C122.982 57.9368 119.223 51.389 116.466 53.3607C113.709 55.3325 114.298 56.7325 115.616 59.0705C116.934 61.4086 121.618 66.4231 121.618 66.4231C121.618 66.4231 115.548 63.7088 111.845 61.0279C108.142 58.3469 104.457 55.9755 102.893 58.1185C101.328 60.2614 106.154 64.8141 106.154 64.8141C106.154 64.8141 100.833 63.3475 100.995 66.1335C101.157 68.9194 104.29 70.51 104.29 70.51C104.29 70.51 99.3964 70.5956 101.783 73.8767C104.17 77.1579 109.739 77.0813 109.739 77.0813C109.739 77.0813 110.346 78.7907 112.534 78.6668C114.722 78.5429 120.202 76.919 120.202 76.919C120.202 76.919 114.315 80.2385 110.668 81.4239C107.021 82.6099 109.978 86.9814 111.49 86.8481C113.003 86.7147 114.817 85.9672 114.817 85.9672C114.817 85.9672 113.342 89.6579 115.869 89.5385C118.396 89.4195 119.534 88.6621 119.534 88.6621C119.534 88.6621 119.5 90.9812 121.315 90.2337C123.129 89.4862 124.729 87.9623 125.973 86.1239C127.218 84.2855 129.422 81.5334 129.422 81.5334C129.422 81.5334 131.539 80.1713 134.101 80.6714C136.664 81.1716 136.664 81.1716 136.664 81.1716L138.282 79.9573L135.9 76.7951Z" fill="#FF6969" stroke="#263238" stroke-miterlimit="10" stroke-linecap="round" stroke-linejoin="round"/>
<path d="M111.064 71.1595C109.357 70.4513 108.001 69.7406 107.261 69.3136L111.064 71.1595Z" fill="#FF6969"/>
<path d="M111.064 71.1595C109.357 70.4513 108.001 69.7406 107.261 69.3136" stroke="#263238" stroke-miterlimit="10" stroke-linecap="round" stroke-linejoin="round"/>
<path d="M134.757 77.4326C134.757 77.4326 126.409 73.2945 120.84 73.3706C118.1 73.4079 115.235 72.6958 112.803 71.8298" fill="#FF6969"/>
<path d="M134.757 77.4326C134.757 77.4326 126.409 73.2945 120.84 73.3706C118.1 73.4079 115.235 72.6958 112.803 71.8298" stroke="#263238" stroke-miterlimit="10" stroke-linecap="round" stroke-linejoin="round"/>
<path d="M126.377 68.8214C127.517 71.6034 128.369 73.1984 130.022 74.4277L126.377 68.8214Z" fill="#FF6969"/>
<path d="M126.377 68.8214C127.517 71.6034 128.369 73.1984 130.022 74.4277" stroke="#263238" stroke-miterlimit="10" stroke-linecap="round" stroke-linejoin="round"/>
<path d="M120.545 59.6035C120.545 59.6035 123.536 61.6559 125.319 66.1653C125.471 66.552 125.617 66.9213 125.757 67.2751" fill="#FF6969"/>
<path d="M120.545 59.6035C120.545 59.6035 123.536 61.6559 125.319 66.1653C125.471 66.552 125.617 66.9213 125.757 67.2751" stroke="#263238" stroke-miterlimit="10" stroke-linecap="round" stroke-linejoin="round"/>
<path d="M125.587 79.7199C125.317 79.9195 125.051 80.1404 124.795 80.3848C122.074 82.9752 119.834 85.1087 117.325 85.5377" fill="#FF6969"/>
<path d="M125.587 79.7199C125.317 79.9195 125.051 80.1404 124.795 80.3848C122.074 82.9752 119.834 85.1087 117.325 85.5377" stroke="#263238" stroke-miterlimit="10" stroke-linecap="round" stroke-linejoin="round"/>
<path d="M131.234 77.8467C131.234 77.8467 129.518 77.8223 127.565 78.6191L131.234 77.8467Z" fill="#FF6969"/>
<path d="M131.234 77.8467C131.234 77.8467 129.518 77.8223 127.565 78.6191" stroke="#263238" stroke-miterlimit="10" stroke-linecap="round" stroke-linejoin="round"/>
<path d="M92.1444 95.3966C92.1444 95.3966 80.9258 82.1038 80.9258 79.5423C80.9258 76.9807 86.141 62.1247 89.1213 64.0035C92.1015 65.8817 101.414 82.1038 100.669 88.5924C99.9246 95.081 95.54 97.7605 92.1444 95.3966Z" fill="#919191" stroke="#263238" stroke-miterlimit="10"/>
<path d="M88.935 66.565C88.935 66.565 85.0237 77.3226 86.5139 79.5428C88.004 81.7624 91.5429 92.5205 93.2192 93.0326C94.8956 93.5447 96.7581 94.0573 97.8758 91.1544" fill="#919191"/>
<path d="M88.935 66.565C88.935 66.565 85.0237 77.3226 86.5139 79.5428C88.004 81.7624 91.5429 92.5205 93.2192 93.0326C94.8956 93.5447 96.7581 94.0573 97.8758 91.1544" stroke="#263238" stroke-miterlimit="10"/>
<path d="M91.9159 85.9254C91.9159 85.9254 91.6814 87.2094 88.4004 89.9192C85.1194 92.629 76.0314 94.0693 79.4851 101.086C82.9387 108.104 89.7293 114.611 92.4262 108.764C95.1231 102.917 94.3419 93.8254 96.6892 92.7947C99.0365 91.764 106.379 92.6623 108.457 88.1281C110.535 83.5943 104.961 74.7004 99.6993 77.9616C94.4369 81.2224 91.9159 85.9254 91.9159 85.9254Z" fill="white" stroke="#263238" stroke-miterlimit="10"/>
<path d="M96.1865 110.484C96.1865 110.484 91.9159 96.6034 91.9159 85.9254C91.9159 75.2473 90.7509 66.3495 93.469 65.2815C96.1871 64.2135 98.9046 63.5018 100.457 64.5698C102.01 65.6378 101.233 80.2305 101.233 90.9086C101.233 101.587 105.892 110.129 105.892 113.688C105.892 117.247 101.233 119.383 98.5154 118.671C95.7984 117.959 96.1865 110.484 96.1865 110.484Z" fill="#D6D6D6" stroke="#263238" stroke-miterlimit="10"/>
<path d="M98.7487 68.8358C98.7487 68.8358 97.8861 84.3846 99.0364 91.7641C100.186 99.143 102.486 108.104 102.773 111.53C103.061 114.956 103.636 115.483 100.761 116.01" stroke="#263238" stroke-miterlimit="10"/>
<path d="M135.267 111.407C135.267 111.407 131.763 109.553 134.512 99.159C137.26 88.7651 137.126 86.5027 134.218 87.5558C131.311 88.6083 130.37 91.1061 130.37 91.1061C130.37 91.1061 130.798 86.637 127.731 87.5164C124.665 88.3958 124.927 91.1509 124.927 91.1509C124.927 91.1509 122.087 84.1676 118.929 86.0045C115.771 87.8414 116.155 89.32 117.145 91.8118C118.135 94.3037 122.172 99.7751 122.172 99.7751C122.172 99.7751 116.339 96.5721 112.942 93.5646C109.546 90.5577 106.119 87.8698 104.164 89.964C102.21 92.0582 106.467 97.0648 106.467 97.0648C106.467 97.0648 101.207 95.1945 100.933 98.0671C100.658 100.94 103.639 102.788 103.639 102.788C103.639 102.788 98.5751 102.542 100.517 106.075C102.46 109.609 108.221 109.911 108.221 109.911C108.221 109.911 108.575 111.709 110.853 111.731C113.132 111.754 119.045 110.46 119.045 110.46C119.045 110.46 112.442 113.467 108.49 114.436C104.538 115.405 106.895 120.097 108.478 120.064C110.06 120.03 112.051 119.386 112.051 119.386C112.051 119.386 109.944 123.077 112.571 123.127C115.198 123.178 116.493 122.478 116.493 122.478C116.493 122.478 116.09 124.858 118.081 124.214C120.072 123.57 121.966 122.114 123.542 120.311C125.118 118.507 127.83 115.83 127.83 115.83C127.83 115.83 130.231 114.576 132.796 115.265C135.362 115.953 135.362 115.953 135.362 115.953L137.225 114.817L135.267 111.407Z" fill="#FF6969" stroke="#263238" stroke-miterlimit="10" stroke-linecap="round" stroke-linejoin="round"/>
<path d="M110.527 103.92C108.878 103.076 107.59 102.253 106.895 101.764L110.527 103.92Z" fill="#FF6969"/>
<path d="M110.527 103.92C108.878 103.076 107.59 102.253 106.895 101.764" stroke="#263238" stroke-miterlimit="10" stroke-linecap="round" stroke-linejoin="round"/>
<path d="M133.986 111.983C133.986 111.983 126.027 107.162 120.266 106.859C117.433 106.711 114.589 105.783 112.216 104.727" fill="#FF6969"/>
<path d="M133.986 111.983C133.986 111.983 126.027 107.162 120.266 106.859C117.433 106.711 114.589 105.783 112.216 104.727" stroke="#263238" stroke-miterlimit="10" stroke-linecap="round" stroke-linejoin="round"/>
<path d="M126.704 102.565C127.439 105.501 128.065 107.197 129.576 108.573L126.704 102.565Z" fill="#FF6969"/>
<path d="M126.704 102.565C127.439 105.501 128.065 107.197 129.576 108.573" stroke="#263238" stroke-miterlimit="10" stroke-linecap="round" stroke-linejoin="round"/>
<path d="M122.147 92.6967C122.147 92.6967 124.908 95.0094 126.033 99.7641C126.129 100.172 126.22 100.561 126.309 100.934" fill="#FF6969"/>
<path d="M122.147 92.6967C122.147 92.6967 124.908 95.0094 126.033 99.7641C126.129 100.172 126.22 100.561 126.309 100.934" stroke="#263238" stroke-miterlimit="10" stroke-linecap="round" stroke-linejoin="round"/>
<path d="M124.159 113.706C123.848 113.893 123.539 114.102 123.235 114.335C120.016 116.811 117.365 118.849 114.708 119.118" fill="#FF6969"/>
<path d="M124.159 113.706C123.848 113.893 123.539 114.102 123.235 114.335C120.016 116.811 117.365 118.849 114.708 119.118" stroke="#263238" stroke-miterlimit="10" stroke-linecap="round" stroke-linejoin="round"/>
<path d="M126.375 112.711C128.518 112.026 130.285 112.168 130.285 112.168L126.375 112.711Z" fill="#FF6969"/>
<path d="M126.375 112.711C128.518 112.026 130.285 112.168 130.285 112.168" stroke="#263238" stroke-miterlimit="10" stroke-linecap="round" stroke-linejoin="round"/>
<path d="M125.203 124.122C125.203 124.122 113.984 110.829 113.984 108.268C113.984 105.707 119.2 90.8508 122.18 92.7295C125.16 94.6077 134.473 110.83 133.728 117.318C132.983 123.807 128.599 126.487 125.203 124.122Z" fill="#919191" stroke="#263238" stroke-miterlimit="10"/>
<path d="M121.994 95.2905C121.994 95.2905 118.082 106.048 119.573 108.268C121.063 110.488 124.602 121.246 126.278 121.758C127.954 122.27 129.817 122.783 130.935 119.88" fill="#919191"/>
<path d="M121.994 95.2905C121.994 95.2905 118.082 106.048 119.573 108.268C121.063 110.488 124.602 121.246 126.278 121.758C127.954 122.27 129.817 122.783 130.935 119.88" stroke="#263238" stroke-miterlimit="10"/>
<path d="M110.822 78.0597C110.822 78.0597 108.81 84.3846 106.798 94.9263C104.785 105.468 105.36 118.645 106.223 120.753C107.085 122.862 110.535 123.652 112.259 123.125C113.984 122.598 113.984 121.807 114.272 111.266C114.559 100.724 114.559 95.9803 117.722 88.0743C120.884 80.1683 119.734 76.7419 117.434 74.8975C115.135 73.0526 113.122 72.2623 110.822 78.0597Z" fill="#D6D6D6" stroke="#263238" stroke-miterlimit="10"/>
<path d="M117.722 80.6954C117.722 80.6954 113.697 87.284 112.548 96.7712C111.398 106.259 114.364 115.4 112.881 118.209C111.398 121.017 108.523 119.963 108.523 119.963" stroke="#263238" stroke-miterlimit="10"/>
<path d="M58.8462 85.7761C58.8462 85.7761 61.637 91.8477 67.3289 101.191C73.0212 110.534 82.5337 120.426 84.6541 121.564C86.7739 122.701 89.9947 121.319 90.9702 119.913C91.9457 118.506 91.4017 117.893 84.3712 109.547C77.3407 101.202 74.0765 97.5206 71.0903 89.5574C68.1035 81.5941 64.854 79.6005 61.8004 79.4989C58.7469 79.3969 56.6417 79.9474 58.8462 85.7761Z" fill="#D6D6D6" stroke="#263238" stroke-miterlimit="10"/>
<path d="M66.0131 83.8312C66.0131 83.8312 67.4239 91.2709 73.0599 99.2973C78.6958 107.324 87.2881 112.702 88.0692 115.738C88.8504 118.775 85.8946 119.62 85.8946 119.62" stroke="#263238" stroke-miterlimit="10"/>
<path d="M145.606 104.941C145.606 104.941 140.432 95.4533 135.257 84.9116C130.083 74.3699 124.908 67.2542 122.321 70.6802C119.734 74.1062 119.734 84.1208 121.459 89.3916C123.183 94.6625 122.033 91.7635 123.183 94.6625C124.333 97.5614 122.895 95.1895 126.058 100.987C129.22 106.785 130.083 108.893 132.095 109.42C134.108 109.948 146.181 114.956 145.606 104.941Z" fill="#C2C2C2" stroke="#263238" stroke-miterlimit="10"/>
<path d="M128.358 81.2224C128.358 81.2224 129.221 83.3305 129.221 92.2911C129.221 101.252 128.933 102.306 128.933 102.306" fill="#C2C2C2"/>
<path d="M128.358 81.2224C128.358 81.2224 129.221 83.3305 129.221 92.2911C129.221 101.252 128.933 102.306 128.933 102.306" stroke="#263238" stroke-miterlimit="10"/>
<path d="M131.52 103.887C133.245 97.5619 131.808 85.4391 131.808 85.4391L131.52 103.887Z" fill="#C2C2C2"/>
<path d="M131.52 103.887C133.245 97.5619 131.808 85.4391 131.808 85.4391" stroke="#263238" stroke-miterlimit="10"/>
<path d="M134.97 91.237C134.97 91.237 135.544 99.9338 133.82 106.786L134.97 91.237Z" fill="#C2C2C2"/>
<path d="M134.97 91.237C134.97 91.237 135.544 99.9338 133.82 106.786" stroke="#263238" stroke-miterlimit="10"/>
<path d="M137.557 98.089C137.557 98.089 137.269 103.887 136.407 107.577L137.557 98.089Z" fill="#C2C2C2"/>
<path d="M137.557 98.089C137.557 98.089 137.269 103.887 136.407 107.577" stroke="#263238" stroke-miterlimit="10"/>
<path d="M125.771 73.8434C125.771 73.8434 137.557 92.2911 142.157 103.887L125.771 73.8434Z" fill="#C2C2C2"/>
<path d="M125.771 73.8434C125.771 73.8434 137.557 92.2911 142.157 103.887" stroke="#263238" stroke-miterlimit="10"/>
<path d="M148.099 92.9634C148.099 92.9634 142.925 83.4758 137.75 72.9341C132.576 62.3925 127.401 55.2768 124.814 58.7027C122.227 62.1287 122.227 72.1434 123.951 77.4142C125.676 82.685 124.526 79.7861 125.676 82.685C126.826 85.584 125.388 83.2121 128.55 89.0099C131.712 94.8078 132.575 96.9159 134.587 97.443C136.6 97.971 148.674 102.978 148.099 92.9634Z" fill="#C2C2C2" stroke="#263238" stroke-miterlimit="10"/>
<path d="M130.851 69.2449C130.851 69.2449 131.714 71.353 131.714 80.3136C131.714 89.2742 131.426 90.3283 131.426 90.3283" fill="#C2C2C2"/>
<path d="M130.851 69.2449C130.851 69.2449 131.714 71.353 131.714 80.3136C131.714 89.2742 131.426 90.3283 131.426 90.3283" stroke="#263238" stroke-miterlimit="10"/>
<path d="M134.3 73.4617C134.3 73.4617 135.738 85.5845 134.013 91.9094L134.3 73.4617Z" fill="#C2C2C2"/>
<path d="M134.3 73.4617C134.3 73.4617 135.738 85.5845 134.013 91.9094" stroke="#263238" stroke-miterlimit="10"/>
<path d="M137.462 79.2596C137.462 79.2596 138.037 87.9564 136.313 94.8083L137.462 79.2596Z" fill="#C2C2C2"/>
<path d="M137.462 79.2596C137.462 79.2596 138.037 87.9564 136.313 94.8083" stroke="#263238" stroke-miterlimit="10"/>
<path d="M140.05 86.1115C140.05 86.1115 139.762 91.9094 138.9 95.5991L140.05 86.1115Z" fill="#C2C2C2"/>
<path d="M140.05 86.1115C140.05 86.1115 139.762 91.9094 138.9 95.5991" stroke="#263238" stroke-miterlimit="10"/>
<path d="M128.264 61.8659C128.264 61.8659 140.05 80.3136 144.649 91.9094L128.264 61.8659Z" fill="#C2C2C2"/>
<path d="M128.264 61.8659C128.264 61.8659 140.05 80.3136 144.649 91.9094" stroke="#263238" stroke-miterlimit="10"/>
<path d="M120.068 117.945C120.068 117.945 118.903 105.132 127.445 95.5215C135.986 85.9114 135.21 75.9456 133.656 69.8949C132.103 63.8442 131.715 60.9965 134.821 63.132C137.927 65.2675 144.528 69.1827 147.633 85.1998C150.739 101.217 158.116 125.775 159.669 141.08C161.222 156.385 162.386 169.199 165.493 177.385C168.598 185.571 164.328 191.978 160.057 195.181C155.786 198.385 150.351 195.181 148.41 188.418C146.468 181.655 120.068 117.945 120.068 117.945Z" fill="white" stroke="#263238" stroke-miterlimit="10"/>
<path d="M95.5866 115.219C95.5866 115.219 90.4121 105.732 85.2376 95.19C80.0631 84.6483 74.8886 77.5326 72.3014 80.9586C69.7141 84.3846 69.7141 94.3992 71.4388 99.6701C73.1634 104.941 72.0136 102.042 73.1634 104.941C74.3132 107.84 72.8762 105.468 76.0384 111.266C79.2005 117.064 80.0631 119.172 82.0749 119.699C84.0884 120.226 96.162 125.233 95.5866 115.219Z" fill="#C2C2C2" stroke="#263238" stroke-miterlimit="10"/>
<path d="M78.339 91.5003C78.339 91.5003 79.2016 93.6084 79.2016 102.569C79.2016 111.53 78.9144 112.584 78.9144 112.584" fill="#C2C2C2"/>
<path d="M78.339 91.5003C78.339 91.5003 79.2016 93.6084 79.2016 102.569C79.2016 111.53 78.9144 112.584 78.9144 112.584" stroke="#263238" stroke-miterlimit="10"/>
<path d="M81.7883 95.717C81.7883 95.717 83.2257 107.84 81.5011 114.165L81.7883 95.717Z" fill="#C2C2C2"/>
<path d="M81.7883 95.717C81.7883 95.717 83.2257 107.84 81.5011 114.165" stroke="#263238" stroke-miterlimit="10"/>
<path d="M84.9504 101.515C84.9504 101.515 85.5253 110.212 83.8007 117.064L84.9504 101.515Z" fill="#C2C2C2"/>
<path d="M84.9504 101.515C84.9504 101.515 85.5253 110.212 83.8007 117.064" stroke="#263238" stroke-miterlimit="10"/>
<path d="M87.5377 108.367C87.5377 108.367 87.25 114.165 86.3879 117.854L87.5377 108.367Z" fill="#C2C2C2"/>
<path d="M87.5377 108.367C87.5377 108.367 87.25 114.165 86.3879 117.854" stroke="#263238" stroke-miterlimit="10"/>
<path d="M75.7518 84.1213C75.7518 84.1213 87.5377 102.569 92.1374 114.165L75.7518 84.1213Z" fill="#C2C2C2"/>
<path d="M75.7518 84.1213C75.7518 84.1213 87.5377 102.569 92.1374 114.165" stroke="#263238" stroke-miterlimit="10"/>
<path d="M140.256 132.538C140.256 132.538 139.427 123.052 124.338 114.03C106.479 103.352 72.3134 105.488 61.8308 96.2336C51.3483 86.9794 51.7365 76.3019 50.572 81.2846C49.4071 86.2678 51.3483 101.928 59.1133 119.013C66.8783 136.098 96.7728 152.114 104.926 157.809C113.079 163.504 127.444 185.215 127.832 190.554C128.22 195.893 130.938 204.08 136.373 206.215C141.809 208.351 150.738 197.317 153.068 178.453C155.397 159.589 140.256 132.538 140.256 132.538Z" fill="white" stroke="#263238" stroke-miterlimit="10"/>
<path d="M107.644 160.657C107.644 160.657 139.091 159.233 158.892 137.521L165.492 177.385C165.492 177.385 161.609 183.436 148.409 188.419C135.209 193.402 127.832 190.555 127.832 190.555L107.644 160.657Z" fill="#FF6969" stroke="#263238" stroke-miterlimit="10" stroke-linecap="round" stroke-linejoin="round"/>
<path d="M107.085 60.4028C107.085 60.4028 103.46 58.0548 104.41 62.7866C105.361 67.5185 106.754 68.4531 107.948 65.4099C109.142 62.3666 114.272 60.4028 115.422 63.3017C116.572 66.2007 118.584 72.7893 120.022 72.7893C121.459 72.7893 119.783 69.5012 122.321 70.6812C124.86 71.8607 121.746 76.4791 123.759 80.1688C125.771 83.8585 132.095 80.1688 131.52 77.2699C130.945 74.3709 127.181 62.9096 127.181 62.9096C127.181 62.9096 121.459 67.7823 121.747 64.0925C122.034 60.4028 120.848 54.275 119.142 53.3856C117.435 52.4963 117.855 61.429 115.489 59.9937C113.123 58.5579 112.913 55.9088 110.718 57.2331C108.523 58.5579 107.085 60.4028 107.085 60.4028Z" fill="white" stroke="#263238" stroke-miterlimit="10"/>
<path d="M128.353 169.638L147.825 171.423" stroke="#263238" stroke-miterlimit="10"/>
<path d="M141.335 173.506L149.123 174.398" stroke="#263238" stroke-miterlimit="10"/>
<path d="M104.373 137.679C105.285 138.344 105.572 139.404 105.014 140.047C104.456 140.69 103.265 140.672 102.353 140.007C101.441 139.342 101.154 138.282 101.712 137.639C102.27 136.996 103.461 137.014 104.373 137.679Z" fill="#263238"/>
<path d="M114.833 144.315C115.289 144.648 115.433 145.178 115.154 145.499C114.875 145.821 114.28 145.812 113.824 145.48C113.368 145.147 113.224 144.617 113.503 144.296C113.782 143.974 114.377 143.983 114.833 144.315Z" fill="#263238"/>
<path d="M120.568 134.535C121.024 134.868 121.167 135.398 120.889 135.719C120.61 136.041 120.014 136.032 119.558 135.7C119.102 135.368 118.958 134.838 119.237 134.516C119.516 134.194 120.112 134.203 120.568 134.535Z" fill="#263238"/>
<path d="M154.969 130.668C155.425 131 155.568 131.53 155.29 131.851C155.011 132.173 154.415 132.165 153.959 131.832C153.503 131.5 153.36 130.97 153.638 130.648C153.917 130.326 154.513 130.335 154.969 130.668Z" fill="#263238"/>
<path d="M150.615 137.708C150.911 138.168 150.839 138.71 150.453 138.919C150.067 139.128 149.514 138.925 149.218 138.465C148.921 138.005 148.994 137.463 149.38 137.254C149.766 137.045 150.318 137.248 150.615 137.708Z" fill="#263238"/>
<path d="M147.825 119.355C148.121 119.815 148.049 120.357 147.663 120.566C147.277 120.775 146.725 120.572 146.428 120.112C146.132 119.652 146.204 119.11 146.59 118.901C146.976 118.692 147.529 118.896 147.825 119.355Z" fill="#263238"/>
<path d="M144.192 195.381C144.489 195.841 144.416 196.383 144.03 196.592C143.644 196.801 143.092 196.598 142.795 196.138C142.499 195.678 142.571 195.136 142.957 194.927C143.343 194.718 143.896 194.921 144.192 195.381Z" fill="#263238"/>
<path d="M156.912 187.192C157.209 187.651 157.136 188.193 156.75 188.402C156.365 188.611 155.812 188.408 155.515 187.949C155.219 187.489 155.291 186.947 155.677 186.738C156.063 186.529 156.616 186.732 156.912 187.192Z" fill="#263238"/>
<path d="M155.29 191.952C155.586 192.412 155.514 192.954 155.128 193.163C154.742 193.372 154.189 193.169 153.893 192.709C153.597 192.249 153.669 191.707 154.055 191.498C154.44 191.289 154.993 191.492 155.29 191.952Z" fill="#263238"/>
<path d="M158.86 190.464C159.156 190.924 159.084 191.466 158.698 191.675C158.312 191.884 157.759 191.681 157.463 191.221C157.166 190.761 157.239 190.219 157.625 190.01C158.01 189.801 158.563 190.005 158.86 190.464Z" fill="#263238"/>
<path d="M84.5395 111.917C84.8359 112.377 84.7637 112.919 84.3777 113.128C83.9917 113.337 83.4391 113.134 83.1427 112.674C82.8463 112.214 82.9185 111.672 83.3045 111.463C83.6899 111.254 84.2431 111.457 84.5395 111.917Z" fill="#263238"/>
<path d="M75.4526 129.769C75.9086 130.101 76.0519 130.631 75.7734 130.953C75.4944 131.274 74.8989 131.266 74.4429 130.933C73.9869 130.601 73.8436 130.071 74.1221 129.749C74.4006 129.428 74.9966 129.436 75.4526 129.769Z" fill="#263238"/>
<path d="M102.75 126.819C103.206 127.151 103.349 127.681 103.071 128.003C102.792 128.324 102.196 128.316 101.74 127.984C101.284 127.651 101.141 127.121 101.42 126.8C101.699 126.478 102.294 126.487 102.75 126.819Z" fill="#263238"/>
<path d="M138.089 90.7926L134.511 99.1595C134.511 99.1595 130.474 104.337 129.575 108.573C128.677 112.81 129.975 116.38 129.975 116.38" fill="#C2C2C2"/>
<path d="M138.089 90.7926L134.511 99.1595C134.511 99.1595 130.474 104.337 129.575 108.573C128.677 112.81 129.975 116.38 129.975 116.38" stroke="#263238" stroke-miterlimit="10"/>
<path d="M130.3 136.017C130.3 136.017 121.862 143.753 122.187 151.191L130.3 136.017Z" fill="#C2C2C2"/>
<path d="M130.3 136.017C130.3 136.017 121.862 143.753 122.187 151.191" stroke="#263238" stroke-miterlimit="10"/>
<path d="M118.617 148.811C118.617 148.811 116.345 153.868 111.152 155.059L118.617 148.811Z" fill="#C2C2C2"/>
<path d="M118.617 148.811C118.617 148.811 116.345 153.868 111.152 155.059" stroke="#263238" stroke-miterlimit="10"/>
</svg>
